<?xml version="1.0" standalone="no"?>
<!DOCTYPE svg PUBLIC "-//W3C//DTD SVG 20010904//EN"
 "http://www.w3.org/TR/2001/REC-SVG-20010904/DTD/svg10.dtd">
<svg version="1.0" xmlns="http://www.w3.org/2000/svg"
 width="1280.000000pt" height="766.000000pt" viewBox="0 0 1280.000000 766.000000"
 preserveAspectRatio="xMidYMid meet">

<g transform="translate(0.000000,766.000000) scale(0.100000,-0.100000)"
fill="#000000" stroke="none">
<path d="M0 3830 l0 -3830 6400 0 6400 0 0 3830 0 3830 -6400 0 -6400 0 0
-3830z m3494 1093 c3 -21 8 -65 11 -98 22 -195 173 -389 348 -445 l37 -12 0
-578 0 -579 -79 -42 c-157 -83 -275 -242 -303 -405 l-12 -74 -743 0 -743 0 0
38 c0 68 -29 176 -67 252 -54 107 -144 195 -250 246 l-82 39 0 542 -1 542 31
17 c109 56 207 161 269 289 42 86 80 210 80 261 0 17 3 34 7 37 3 4 340 7 749
7 l742 0 6 -37z m5046 -823 c0 -126 3 -230 8 -230 4 0 14 15 22 33 22 46 89
93 145 101 109 17 204 -38 246 -141 21 -51 24 -74 24 -188 l0 -130 -36 -65
c-40 -73 -97 -122 -162 -142 -65 -20 -241 -15 -307 8 l-55 19 -3 442 -2 441
-50 7 c-53 7 -62 18 -30 35 27 14 128 38 168 39 l32 1 0 -230z m770 -239 l0
-469 45 -18 c25 -9 45 -23 45 -30 0 -11 -29 -14 -145 -14 -111 0 -145 3 -145
13 0 7 19 19 43 27 l42 15 3 431 2 431 -50 7 c-32 4 -50 12 -50 20 0 18 109
51 183 55 l27 1 0 -469z m-2099 420 c17 -13 23 -29 23 -56 0 -47 -23 -65 -80
-65 -33 0 -46 5 -58 22 -23 32 -20 65 9 93 29 30 73 33 106 6z m-2430 -131
c22 -58 48 -127 59 -155 10 -27 33 -86 50 -130 49 -128 70 -185 98 -268 14
-43 29 -76 35 -74 5 1 24 45 41 97 18 52 51 140 74 195 22 55 66 165 97 245
31 80 62 157 68 173 l12 27 118 0 c107 0 118 -2 115 -17 -2 -11 -21 -22 -51
-31 l-47 -13 0 -403 0 -402 47 -15 c29 -9 49 -22 51 -32 3 -15 -11 -17 -158
-17 -147 0 -161 2 -158 17 2 10 22 23 51 32 l47 15 0 291 c0 161 3 334 7 385
5 77 4 92 -8 88 -7 -2 -20 -27 -27 -54 -13 -46 -62 -177 -134 -354 -17 -41
-57 -142 -89 -225 -33 -82 -64 -160 -69 -173 -19 -44 -41 -21 -82 88 -54 144
-69 184 -128 340 -28 74 -67 182 -87 240 -52 154 -55 160 -64 160 -5 0 -8
-168 -7 -392 l3 -392 45 -17 c25 -9 46 -24 48 -33 3 -14 -13 -16 -132 -16
-111 0 -136 3 -136 14 0 8 23 23 53 34 l52 20 3 400 2 401 -42 11 c-65 17 -68
18 -68 35 0 13 18 15 136 13 l136 -3 39 -105z m6189 -70 l5 -85 98 -3 c95 -3
97 -3 97 -27 0 -24 -2 -24 -97 -27 l-98 -3 -3 -218 c-3 -260 3 -292 56 -314
27 -11 55 -14 105 -9 37 3 67 3 67 -1 0 -16 -67 -52 -125 -68 -57 -16 -63 -16
-115 2 -92 31 -94 39 -100 348 l-5 260 -52 3 c-29 2 -53 7 -53 13 0 12 60 49
81 49 22 0 29 20 29 81 0 46 2 50 38 68 60 33 66 27 72 -69z m-5149 -317 c0
-287 8 -325 69 -355 65 -33 137 -18 182 37 55 67 59 86 56 291 l-3 189 -40 5
c-84 11 -22 52 112 75 l43 7 2 -303 3 -304 30 -9 c17 -5 36 -11 44 -13 40 -11
-85 -63 -151 -63 l-28 0 0 75 c0 73 -12 97 -25 54 -15 -45 -86 -109 -139 -124
-53 -16 -131 -9 -175 15 -78 41 -104 147 -99 403 l3 182 -39 5 c-22 3 -41 10
-43 16 -4 13 55 38 122 53 82 18 75 40 76 -236z m1003 230 l29 -6 -6 -68 c-6
-71 -21 -113 -39 -107 -6 2 -21 32 -33 67 -13 34 -26 65 -29 68 -3 3 -27 8
-53 10 -119 11 -173 -115 -81 -188 18 -14 60 -40 93 -59 79 -44 142 -95 160
-130 19 -37 19 -113 1 -148 -50 -96 -164 -134 -321 -107 -49 9 -94 20 -99 25
-12 12 10 141 28 165 11 16 14 15 28 -7 9 -14 21 -42 28 -64 17 -56 33 -74 72
-80 118 -20 210 89 148 176 -17 25 -160 120 -179 120 -4 0 -28 22 -55 49 -52
53 -71 107 -60 168 8 45 71 107 122 122 36 10 188 7 246 -6z m386 -292 l0
-309 45 -18 c25 -9 45 -23 45 -30 0 -11 -29 -14 -145 -14 -118 0 -143 2 -139
14 3 7 23 20 45 29 l39 15 0 271 0 271 -29 0 c-34 0 -61 9 -61 20 0 14 129 56
183 59 16 1 17 -20 17 -308z m624 298 c34 -6 69 -16 79 -24 18 -13 18 -17 2
-87 -9 -40 -20 -80 -24 -87 -17 -27 -40 -1 -63 71 -26 83 -44 95 -119 84 -69
-10 -107 -39 -137 -104 -24 -51 -27 -68 -27 -167 0 -127 16 -174 80 -237 60
-60 183 -75 264 -33 41 21 42 0 4 -38 -85 -81 -265 -79 -366 4 -21 17 -50 58
-69 97 -30 63 -32 74 -33 177 0 85 4 122 20 163 56 153 192 216 389 181z
m2051 0 c25 -6 58 -24 74 -40 47 -44 54 -90 49 -299 -3 -102 -3 -201 -1 -222
5 -34 7 -36 49 -43 50 -7 58 -27 17 -43 -60 -22 -97 -32 -123 -32 -23 0 -29 5
-34 31 -3 17 -6 44 -6 59 0 56 -11 64 -30 23 -58 -130 -250 -158 -331 -49 -33
43 -35 166 -4 209 40 56 144 89 310 100 l40 2 0 90 c0 112 -14 144 -72 164
-31 11 -53 12 -88 5 l-47 -9 -30 -78 c-22 -54 -36 -77 -46 -75 -17 3 -35 51
-45 114 l-7 42 57 23 c96 39 187 48 268 28z m710 -7 c28 -8 30 -12 27 -51 -4
-56 -25 -124 -39 -128 -6 -2 -23 28 -38 66 -26 65 -31 71 -62 77 -55 10 -100
-3 -128 -40 -54 -71 -21 -127 120 -205 126 -70 175 -126 175 -201 0 -123 -98
-196 -260 -192 -41 1 -97 8 -125 15 -49 13 -50 14 -52 53 -3 42 25 136 42 141
9 2 36 -53 64 -129 18 -49 114 -50 178 -2 38 29 52 79 33 124 -13 31 -75 81
-144 115 -93 48 -166 138 -166 207 0 65 58 135 131 157 37 11 195 7 244 -7z"/>
<path d="M2152 4313 c3 -24 10 -30 56 -42 l52 -14 0 -432 0 -431 -47 -15 c-50
-16 -70 -37 -60 -63 6 -15 24 -16 154 -14 147 3 148 3 151 27 4 28 -8 37 -65
52 l-43 11 0 409 c0 378 6 471 25 372 8 -45 26 -99 72 -218 19 -49 46 -119 59
-155 14 -36 29 -74 34 -85 12 -25 41 -102 90 -235 21 -58 44 -118 51 -135 23
-50 49 -59 67 -22 18 37 299 747 327 827 25 73 26 74 21 26 -3 -27 -6 -214 -6
-417 l0 -367 -32 -7 c-58 -13 -90 -34 -86 -58 3 -22 5 -22 188 -22 183 0 185
0 188 22 3 23 -26 44 -80 57 l-28 6 0 434 0 434 33 7 c46 10 77 32 77 55 0 19
-7 20 -140 20 l-140 0 -10 -27 c-6 -16 -15 -37 -20 -48 -5 -11 -25 -63 -45
-115 -50 -130 -124 -321 -135 -345 -21 -47 -61 -156 -76 -204 -8 -28 -19 -51
-24 -51 -5 0 -17 26 -26 58 -9 31 -34 102 -56 157 -60 156 -74 193 -113 295
-57 149 -86 223 -98 253 l-12 27 -153 0 -153 0 3 -27z"/>
<path d="M8668 3933 c-32 -5 -89 -59 -111 -106 -25 -51 -25 -418 -1 -438 22
-18 147 -24 183 -9 45 18 87 70 111 137 31 85 26 253 -9 325 -33 68 -99 103
-173 91z"/>
<path d="M9785 3650 c-62 -9 -110 -33 -130 -64 -20 -31 -23 -93 -6 -134 35
-85 170 -80 229 8 20 30 22 44 20 115 l-3 80 -30 1 c-16 1 -53 -1 -80 -6z"/>
</g>
</svg>
